# Blender v2.82 (sub 7) OBJ File: 'veryLowPolyVisualsTest.blend'
# www.blender.org
o BannerWithNightLight_Cube.015
v 0.000000 -0.200000 0.057418
v 0.000000 4.289302 0.057418
v -0.043064 -0.200000 -0.028709
v -0.043064 4.289302 -0.028709
v 0.043064 -0.200000 -0.028709
v 0.043064 4.289302 -0.028709
v 0.000286 3.690747 0.052809
v 1.013864 3.690747 0.052809
v 0.000286 3.730354 -0.026404
v 1.013864 3.730354 -0.026404
v 0.000286 3.651141 -0.026404
v 1.013864 3.651140 -0.026404
v 0.072227 3.624590 0.008794
v 0.924406 3.624590 0.008794
v 0.072227 0.635818 0.008794
v 0.924406 0.635818 0.008794
v 0.924406 3.624590 0.010653
v 0.072227 3.624590 0.010653
v 0.924406 0.635818 0.010653
v 0.072227 0.635818 0.010653
v 0.875746 3.694309 -0.004973
v 0.912703 3.694309 -0.004973
v 0.875746 3.612369 0.009724
v 0.912703 3.612369 0.009724
v 0.912703 3.694309 0.024395
v 0.875746 3.694309 0.024395
v 0.105268 3.694309 -0.004973
v 0.142225 3.694309 -0.004973
v 0.105268 3.612369 0.009724
v 0.142225 3.612369 0.009724
v 0.142225 3.694309 0.024395
v 0.105268 3.694309 0.024395
v 0.487124 3.694309 -0.004973
v 0.524081 3.694309 -0.004973
v 0.487124 3.612369 0.009724
v 0.524081 3.612369 0.009724
v 0.524081 3.694309 0.024395
v 0.487124 3.694309 0.024395
v 0.004978 3.573599 -0.004973
v 0.004978 3.610556 -0.004973
v 0.086918 3.573599 0.009724
v 0.086918 3.610556 0.009724
v 0.004978 3.610556 0.024395
v 0.004978 3.573599 0.024395
v 0.004978 2.769295 -0.004973
v 0.004978 2.806252 -0.004973
v 0.086918 2.769295 0.009724
v 0.086918 2.806252 0.009724
v 0.004978 2.806252 0.024395
v 0.004978 2.769295 0.024395
v 0.004978 3.185729 -0.004973
v 0.004978 3.222686 -0.004973
v 0.086918 3.185729 0.009724
v 0.086918 3.222686 0.009724
v 0.004978 3.222686 0.024395
v 0.004978 3.185729 0.024395
v 0.004978 2.351581 -0.004973
v 0.004978 2.388538 -0.004973
v 0.086918 2.351581 0.009724
v 0.086918 2.388538 0.009724
v 0.004978 2.388538 0.024395
v 0.004978 2.351581 0.024395
v 0.004978 1.547277 -0.004973
v 0.004978 1.584234 -0.004973
v 0.086918 1.547277 0.009724
v 0.086918 1.584234 0.009724
v 0.004978 1.584234 0.024395
v 0.004978 1.547277 0.024395
v 0.004978 1.963711 -0.004973
v 0.004978 2.000668 -0.004973
v 0.086918 1.963711 0.009724
v 0.086918 2.000668 0.009724
v 0.004978 2.000668 0.024395
v 0.004978 1.963711 0.024395
v 0.004978 1.126071 -0.004973
v 0.004978 1.163028 -0.004973
v 0.086918 1.126071 0.009724
v 0.086918 1.163028 0.009724
v 0.004978 1.163028 0.024395
v 0.004978 1.126071 0.024395
v 0.004978 0.738201 -0.004973
v 0.004978 0.775158 -0.004973
v 0.086918 0.738201 0.009724
v 0.086918 0.775158 0.009724
v 0.004978 0.775158 0.024395
v 0.004978 0.738201 0.024395
v 0.000286 4.068859 0.052809
v 1.013864 4.068859 0.052809
v 0.000286 4.108466 -0.026404
v 1.013864 4.108466 -0.026404
v 0.000286 4.029253 -0.026404
v 1.013864 4.029252 -0.026404
v 0.875746 4.072477 -0.004973
v 0.912703 4.072477 -0.004973
v 0.875746 3.990536 0.009724
v 0.912703 3.990536 0.009724
v 0.912703 4.072477 0.024395
v 0.875746 4.072477 0.024395
v 0.105268 4.072477 -0.004973
v 0.142225 4.072477 -0.004973
v 0.105268 3.990536 0.009724
v 0.142225 3.990536 0.009724
v 0.142225 4.072477 0.024395
v 0.105268 4.072477 0.024395
v 0.487124 4.072477 -0.004973
v 0.524081 4.072477 -0.004973
v 0.487124 3.990536 0.009724
v 0.524081 3.990536 0.009724
v 0.524081 4.072477 0.024395
v 0.487124 4.072477 0.024395
v 0.875746 3.687972 0.024395
v 0.912703 3.687972 0.024395
v 0.875746 3.769912 0.009698
v 0.912703 3.769912 0.009698
v 0.912703 3.687972 -0.004974
v 0.875746 3.687972 -0.004974
v 0.105268 3.687972 0.024395
v 0.142225 3.687972 0.024395
v 0.105268 3.769912 0.009698
v 0.142225 3.769912 0.009698
v 0.142225 3.687972 -0.004974
v 0.105268 3.687972 -0.004974
v 0.487124 3.687972 0.024395
v 0.524081 3.687972 0.024395
v 0.487124 3.769912 0.009698
v 0.524081 3.769912 0.009698
v 0.524081 3.687972 -0.004974
v 0.487124 3.687972 -0.004974
v 0.072227 4.004422 0.008794
v 0.924406 4.004422 0.008794
v 0.072227 3.755498 0.008794
v 0.924406 3.755498 0.008794
v 0.924406 4.004422 0.010653
v 0.072227 4.004422 0.010653
v 0.924406 3.755498 0.010653
v 0.072227 3.755498 0.010653
vt 0.148639 0.583552
vt 0.146916 0.572698
vt 0.148639 0.572698
vt 0.150316 0.572698
vt 0.151857 0.583552
vt 0.150316 0.583552
vt 0.150316 0.583552
vt 0.150316 0.572698
vt 0.156400 0.572803
vt 0.157771 0.572698
vt 0.157771 0.572951
vt 0.154983 0.572698
vt 0.153441 0.575421
vt 0.153441 0.572698
vt 0.156400 0.575421
vt 0.154983 0.572698
vt 0.156400 0.572698
vt 0.153441 0.575421
vt 0.151857 0.572698
vt 0.153441 0.572698
vt 0.156400 0.573048
vt 0.157661 0.572951
vt 0.157661 0.573184
vt 0.280352 0.077893
vt 0.264167 0.134656
vt 0.264167 0.077893
vt 0.296549 0.077893
vt 0.280364 0.134656
vt 0.280364 0.077893
vt 0.528891 0.579893
vt 0.512707 0.636656
vt 0.512707 0.579893
vt 0.545088 0.579893
vt 0.528903 0.636656
vt 0.528903 0.579893
vt 0.528891 0.579893
vt 0.512707 0.636656
vt 0.512707 0.579893
vt 0.545088 0.579893
vt 0.528903 0.636656
vt 0.528903 0.579893
vt 0.528891 0.579893
vt 0.512707 0.636656
vt 0.512707 0.579893
vt 0.545088 0.579893
vt 0.528903 0.636656
vt 0.528903 0.579893
vt 0.528891 0.579893
vt 0.512707 0.636656
vt 0.512707 0.579893
vt 0.545088 0.579893
vt 0.528903 0.636656
vt 0.528903 0.579893
vt 0.528891 0.579893
vt 0.512707 0.636656
vt 0.512707 0.579893
vt 0.545088 0.579893
vt 0.528903 0.636656
vt 0.528903 0.579893
vt 0.528891 0.579893
vt 0.512707 0.636656
vt 0.512707 0.579893
vt 0.545088 0.579893
vt 0.528903 0.636656
vt 0.528903 0.579893
vt 0.528891 0.579893
vt 0.512707 0.636656
vt 0.512707 0.579893
vt 0.545088 0.579893
vt 0.528903 0.636656
vt 0.528903 0.579893
vt 0.528891 0.579893
vt 0.512707 0.636656
vt 0.512707 0.579893
vt 0.545088 0.579893
vt 0.528903 0.636656
vt 0.528903 0.579893
vt 0.528891 0.579893
vt 0.512707 0.636656
vt 0.512707 0.579893
vt 0.545088 0.579893
vt 0.528903 0.636656
vt 0.528903 0.579893
vt 0.528891 0.579893
vt 0.512707 0.636656
vt 0.512707 0.579893
vt 0.545088 0.579893
vt 0.528903 0.636656
vt 0.528903 0.579893
vt 0.528891 0.579893
vt 0.512707 0.636656
vt 0.512707 0.579893
vt 0.545088 0.579893
vt 0.528903 0.636656
vt 0.528903 0.579893
vt 0.154983 0.575421
vt 0.153441 0.572698
vt 0.154983 0.572698
vt 0.156400 0.575421
vt 0.154983 0.572698
vt 0.156400 0.572698
vt 0.153441 0.572698
vt 0.151857 0.575421
vt 0.151857 0.572698
vt 0.156400 0.573048
vt 0.157661 0.572951
vt 0.157661 0.573184
vt 0.528891 0.579893
vt 0.512707 0.636656
vt 0.512707 0.579893
vt 0.528903 0.579893
vt 0.545088 0.636656
vt 0.528903 0.636656
vt 0.528891 0.579893
vt 0.512707 0.636656
vt 0.512707 0.579893
vt 0.528903 0.579893
vt 0.545088 0.636656
vt 0.528903 0.636656
vt 0.528891 0.579893
vt 0.512707 0.636656
vt 0.512707 0.579893
vt 0.528903 0.579893
vt 0.545088 0.636656
vt 0.528903 0.636656
vt 0.528891 0.579893
vt 0.512707 0.636656
vt 0.512707 0.579893
vt 0.545088 0.579893
vt 0.528903 0.636656
vt 0.528903 0.579893
vt 0.528891 0.579893
vt 0.512707 0.636656
vt 0.512707 0.579893
vt 0.528903 0.579893
vt 0.545088 0.636656
vt 0.528903 0.636656
vt 0.528891 0.579893
vt 0.512707 0.636656
vt 0.512707 0.579893
vt 0.528903 0.579893
vt 0.545088 0.636656
vt 0.528903 0.636656
vt 0.971832 0.077893
vt 0.955647 0.134656
vt 0.955647 0.077893
vt 0.988029 0.077893
vt 0.971844 0.134656
vt 0.971844 0.077893
vt 0.146916 0.583552
vt 0.151857 0.572698
vt 0.154983 0.575421
vt 0.154983 0.575421
vt 0.151857 0.575421
vt 0.280352 0.134656
vt 0.296549 0.134656
vt 0.545088 0.636656
vt 0.545088 0.636656
vt 0.545088 0.636656
vt 0.545088 0.636656
vt 0.545088 0.636656
vt 0.545088 0.636656
vt 0.545088 0.636656
vt 0.545088 0.636656
vt 0.545088 0.636656
vt 0.545088 0.636656
vt 0.545088 0.636656
vt 0.153441 0.575421
vt 0.154983 0.575421
vt 0.153441 0.575421
vt 0.545088 0.579893
vt 0.545088 0.579893
vt 0.545088 0.579893
vt 0.545088 0.636656
vt 0.545088 0.579893
vt 0.545088 0.579893
vt 0.971832 0.134656
vt 0.988029 0.134656
vn -0.8944 0.0000 0.4472
vn 0.0000 0.0000 -1.0000
vn 0.8944 0.0000 0.4472
vn 0.0000 1.0000 0.0000
vn 0.0000 0.8944 0.4472
vn -0.0000 -0.8944 0.4472
vn 1.0000 0.0000 0.0000
vn 0.0000 0.0000 1.0000
vn -0.0000 -0.1765 -0.9843
vn 0.0000 -0.1762 0.9843
vn 0.1765 -0.0000 -0.9843
vn 0.1762 0.0000 0.9843
vn 0.0000 0.1765 0.9843
vn 0.0000 0.1762 -0.9843
vn 0.0000 -0.1763 0.9843
vn 0.1763 0.0000 0.9843
vn 0.0000 0.1763 -0.9843
s off
f 2/1/1 3/2/1 1/3/1
f 4/4/2 5/5/2 3/6/2
f 6/7/3 1/3/3 5/8/3
f 6/9/4 4/10/4 2/11/4
f 7/12/5 10/13/5 9/14/5
f 10/15/2 11/16/2 9/17/2
f 12/18/6 7/19/6 11/20/6
f 12/21/7 10/22/7 8/23/7
f 14/24/2 15/25/2 13/26/2
f 18/27/8 19/28/8 17/29/8
f 22/30/9 23/31/9 21/32/9
f 26/33/10 24/34/10 25/35/10
f 28/36/9 29/37/9 27/38/9
f 32/39/10 30/40/10 31/41/10
f 34/42/9 35/43/9 33/44/9
f 38/45/10 36/46/10 37/47/10
f 40/48/11 41/49/11 39/50/11
f 44/51/12 42/52/12 43/53/12
f 46/54/11 47/55/11 45/56/11
f 50/57/12 48/58/12 49/59/12
f 52/60/11 53/61/11 51/62/11
f 56/63/12 54/64/12 55/65/12
f 58/66/11 59/67/11 57/68/11
f 62/69/12 60/70/12 61/71/12
f 64/72/11 65/73/11 63/74/11
f 68/75/12 66/76/12 67/77/12
f 70/78/11 71/79/11 69/80/11
f 74/81/12 72/82/12 73/83/12
f 76/84/11 77/85/11 75/86/11
f 80/87/12 78/88/12 79/89/12
f 82/90/11 83/91/11 81/92/11
f 86/93/12 84/94/12 85/95/12
f 88/96/5 89/97/5 87/98/5
f 90/99/2 91/100/2 89/101/2
f 91/102/6 88/103/6 87/104/6
f 92/105/7 90/106/7 88/107/7
f 94/108/9 95/109/9 93/110/9
f 97/111/10 95/112/10 96/113/10
f 100/114/9 101/115/9 99/116/9
f 103/117/10 101/118/10 102/119/10
f 106/120/9 107/121/9 105/122/9
f 109/123/10 107/124/10 108/125/10
f 112/126/13 113/127/13 111/128/13
f 116/129/14 114/130/14 115/131/14
f 118/132/13 119/133/13 117/134/13
f 121/135/14 119/136/14 120/137/14
f 124/138/13 125/139/13 123/140/13
f 127/141/14 125/142/14 126/143/14
f 130/144/2 131/145/2 129/146/2
f 134/147/8 135/148/8 133/149/8
f 2/1/1 4/150/1 3/2/1
f 4/4/2 6/151/2 5/5/2
f 6/7/3 2/1/3 1/3/3
f 7/12/5 8/152/5 10/13/5
f 10/15/2 12/153/2 11/16/2
f 12/18/6 8/154/6 7/19/6
f 14/24/2 16/155/2 15/25/2
f 18/27/8 20/156/8 19/28/8
f 22/30/9 24/34/9 23/31/9
f 26/33/15 23/157/15 24/34/15
f 28/36/9 30/40/9 29/37/9
f 32/39/15 29/158/15 30/40/15
f 34/42/9 36/46/9 35/43/9
f 38/45/10 35/159/10 36/46/10
f 40/48/11 42/52/11 41/49/11
f 44/51/12 41/160/12 42/52/12
f 46/54/11 48/58/11 47/55/11
f 50/57/16 47/161/16 48/58/16
f 52/60/11 54/64/11 53/61/11
f 56/63/16 53/162/16 54/64/16
f 58/66/11 60/70/11 59/67/11
f 62/69/16 59/163/16 60/70/16
f 64/72/11 66/76/11 65/73/11
f 68/75/12 65/164/12 66/76/12
f 70/78/11 72/82/11 71/79/11
f 74/81/12 71/165/12 72/82/12
f 76/84/11 78/88/11 77/85/11
f 80/87/16 77/166/16 78/88/16
f 82/90/11 84/94/11 83/91/11
f 86/93/16 83/167/16 84/94/16
f 88/96/5 90/168/5 89/97/5
f 90/99/2 92/169/2 91/100/2
f 91/102/6 92/170/6 88/103/6
f 94/108/9 96/113/9 95/109/9
f 97/111/10 98/171/10 95/112/10
f 100/114/9 102/119/9 101/115/9
f 103/117/10 104/172/10 101/118/10
f 106/120/9 108/125/9 107/121/9
f 109/123/10 110/173/10 107/124/10
f 112/126/13 114/130/13 113/127/13
f 116/129/17 113/174/17 114/130/17
f 118/132/13 120/137/13 119/133/13
f 121/135/14 122/175/14 119/136/14
f 124/138/13 126/143/13 125/139/13
f 127/141/17 128/176/17 125/142/17
f 130/144/2 132/177/2 131/145/2
f 134/147/8 136/178/8 135/148/8
