# Blender v2.79 (sub 0) OBJ File: 'pRotoTYPE_Assets.blend'
# www.blender.org
o Text_CUCoffee
v 2.484152 0.272583 0.000000
v 2.484152 0.311410 0.000000
v 3.119651 0.311410 0.000000
v 3.119651 0.272583 0.000000
v 2.263075 0.316957 0.000000
v 1.786054 0.316957 0.000000
v 1.786054 0.194929 0.000000
v 1.798930 0.130349 0.000000
v 1.835975 0.076070 0.000000
v 1.871930 0.051307 0.000000
v 1.911648 0.034073 0.000000
v 1.953744 0.022979 0.000000
v 1.996831 0.016640 0.000000
v 2.040412 0.014263 0.000000
v 2.083994 0.015055 0.000000
v 2.094889 0.016838 0.000000
v 2.105388 0.019017 0.000000
v 2.107568 -0.000792 -0.000000
v 2.109350 -0.020602 -0.000000
v 2.075079 -0.023574 -0.000000
v 2.051506 -0.024564 -0.000000
v 2.008716 -0.022781 -0.000000
v 1.965927 -0.017433 -0.000000
v 1.923831 -0.008122 -0.000000
v 1.883122 0.005547 0.000000
v 1.844988 0.024762 0.000000
v 1.810618 0.050713 0.000000
v 1.764461 0.116086 0.000000
v 1.749604 0.194929 0.000000
v 1.749604 0.614897 0.000000
v 1.786054 0.614897 0.000000
v 1.786054 0.352615 0.000000
v 2.263075 0.352615 0.000000
v 0.861331 0.272583 0.000000
v 0.861331 0.311410 0.000000
v 1.496830 0.311410 0.000000
v 1.496830 0.272583 0.000000
v 0.610935 0.014263 0.000000
v 0.143423 0.014263 0.000000
v 0.143423 0.053883 0.000000
v 0.572108 0.053883 0.000000
v 0.572108 0.515055 0.000000
v 0.143423 0.515055 0.000000
v 0.143423 0.554675 0.000000
v 0.610935 0.554675 0.000000
vt 0.003954 0.915996
vt 0.010410 0.915996
vt 0.010410 0.922451
vt 0.010410 0.915996
vt 0.010410 0.922451
vt 0.003954 0.915996
vt 0.010410 0.915996
vt 0.010410 0.922451
vt 0.010410 0.915996
vt 0.010410 0.922451
vt 0.010410 0.915996
vt 0.010410 0.922451
vt 0.003954 0.915996
vt 0.010410 0.915996
vt 0.010410 0.915996
vt 0.010410 0.922451
vt 0.010410 0.915996
vt 0.010410 0.922451
vt 0.003954 0.915996
vt 0.010410 0.922451
vt 0.010410 0.915996
vt 0.010410 0.922451
vt 0.010410 0.915996
vt 0.010410 0.922451
vt 0.003954 0.915996
vt 0.010410 0.922451
vt 0.010410 0.915996
vt 0.010410 0.922451
vt 0.010410 0.915996
vt 0.010410 0.922451
vt 0.003954 0.915996
vt 0.010410 0.922451
vt 0.010410 0.915996
vt 0.010410 0.922451
vt 0.003954 0.915996
vt 0.010410 0.922451
vt 0.010410 0.915996
vt 0.010410 0.922451
vt 0.003954 0.915996
vt 0.010410 0.915996
vt 0.010410 0.922451
vt 0.003954 0.915996
vt 0.010410 0.922451
vt 0.010410 0.915996
vt 0.010410 0.922451
vt 0.003954 0.915996
vt 0.010410 0.922451
vt 0.010410 0.922451
vt 0.003954 0.915996
vt 0.010410 0.922451
vt 0.010410 0.915996
vt 0.010410 0.922451
vt 0.003954 0.915996
vt 0.010410 0.922451
vt 0.003954 0.915996
vt 0.010410 0.922451
vt 0.010410 0.915996
vt 0.010410 0.922451
vt 0.003954 0.915996
vt 0.010410 0.922451
vt 0.003954 0.915996
vt 0.010410 0.915996
vt 0.010410 0.922451
vt 0.010410 0.915996
vt 0.010410 0.922451
vt 0.003954 0.915996
vt 0.010410 0.915996
vt 0.010410 0.922451
vt 0.010410 0.915996
vt 0.010410 0.922451
vt 0.003954 0.915996
vt 0.010410 0.915996
vt 0.003954 0.915996
vt 0.010410 0.922451
vt 0.003954 0.915996
vt 0.010410 0.915996
vt 0.010410 0.922451
vt 0.010410 0.922451
vn 0.0000 -0.0000 1.0000
s off
f 1/1/1 3/2/1 2/3/1
f 1/1/1 4/4/1 3/5/1
f 29/6/1 31/7/1 30/8/1
f 29/6/1 32/9/1 31/10/1
f 29/6/1 6/11/1 32/12/1
f 6/13/1 33/14/1 32/12/1
f 6/13/1 5/15/1 33/16/1
f 29/6/1 7/17/1 6/18/1
f 28/19/1 7/17/1 29/20/1
f 28/19/1 8/21/1 7/22/1
f 28/19/1 9/23/1 8/24/1
f 27/25/1 9/23/1 28/26/1
f 27/25/1 10/27/1 9/28/1
f 27/25/1 11/29/1 10/30/1
f 26/31/1 11/29/1 27/32/1
f 26/31/1 12/33/1 11/34/1
f 25/35/1 12/33/1 26/36/1
f 25/35/1 13/37/1 12/38/1
f 16/39/1 18/40/1 17/41/1
f 15/42/1 18/40/1 16/43/1
f 25/35/1 14/44/1 13/45/1
f 14/46/1 18/40/1 15/47/1
f 25/35/1 18/40/1 14/48/1
f 24/49/1 18/40/1 25/50/1
f 24/49/1 19/51/1 18/52/1
f 23/53/1 19/51/1 24/54/1
f 22/55/1 19/51/1 23/56/1
f 22/55/1 20/57/1 19/58/1
f 21/59/1 20/57/1 22/60/1
f 34/61/1 36/62/1 35/63/1
f 34/61/1 37/64/1 36/65/1
f 43/66/1 45/67/1 44/68/1
f 43/66/1 42/69/1 45/70/1
f 42/71/1 38/72/1 45/70/1
f 41/73/1 38/72/1 42/74/1
f 39/75/1 41/76/1 40/77/1
f 39/75/1 38/72/1 41/78/1
